# xmcd
#
# Track frame offsets: 
#        150
#        12547
#        29875
#        50445
#        67242
#        85410
#        102862
#        122515
#        140567
#        157670
#        171860
#        186431
#
# Disc length: 2655 seconds
#
# Revision: 1
# Processed by: cddbd v1.5.2PL0 Copyright (c) Steve Scherf et al.
# Submitted via: ExactAudioCopy v1.2
#
DISCID=aa0a5d0c
DTITLE=Julio Iglesias - Romantic Classics
DYEAR=2006
DGENRE=Pop
TTITLE0=Everybody's Talking
TTITLE1=How Can You Mend a Broken Heart?
TTITLE2=Careless Whisper
TTITLE3=Always On My Mind
TTITLE4=Waiting ForA Girl Like You
TTITLE5=Drive
TTITLE6=I Want To Know What Love Is
TTITLE7=Right Here Waiting
TTITLE8=This Guy's In Love With You
TTITLE9=The Most Beautiful Girl
TTITLE10=It's Impossible
TTITLE11=Dance All Night
EXTD=
EXTT0=
EXTT1=
EXTT2=
EXTT3=
EXTT4=
EXTT5=
EXTT6=
EXTT7=
EXTT8=
EXTT9=
EXTT10=
EXTT11=
PLAYORDER=
